<svg width="23" height="23" viewBox="0 0 23 23" fill="none" xmlns="http://www.w3.org/2000/svg">
<path d="M18.874 0.5625H0.5V18.9365C0.5 19.8643 0.871094 20.7529 1.52539 21.4121C2.17969 22.0713 3.07324 22.4375 4.00098 22.4375H18.874C19.8018 22.4375 20.6904 22.0664 21.3496 21.4121C22.0088 20.7578 22.375 19.8643 22.375 18.9365V4.06348C22.375 3.13574 22.0039 2.24707 21.3496 1.58789C20.6953 0.92871 19.8018 0.5625 18.874 0.5625ZM16.7305 20.0645C16.3545 19.6494 16.1592 19.0537 16.1445 18.2773H17.6729C17.6826 18.9658 17.9219 19.3076 18.3955 19.3076C18.6348 19.3076 18.8057 19.2295 18.9082 19.0781C19.0059 18.9268 19.0547 18.6875 19.0547 18.3555C19.0547 18.0918 18.9912 17.8721 18.8594 17.7012C18.6885 17.4961 18.4639 17.335 18.2148 17.2373L17.6484 16.9688C17.1455 16.7295 16.7793 16.4414 16.5498 16.1094C16.3301 15.7773 16.2227 15.3135 16.2227 14.7227C16.2227 14.0586 16.418 13.5215 16.7988 13.1064C17.1943 12.6914 17.7314 12.4863 18.4199 12.4863C19.084 12.4863 19.5967 12.6914 19.958 13.0967C20.3242 13.5068 20.5195 14.0879 20.5342 14.8496H19.0645C19.0742 14.6006 19.0205 14.3516 18.918 14.127C18.835 13.9609 18.6738 13.8779 18.4297 13.8779C18 13.8779 17.7852 14.1318 17.7852 14.6445C17.7852 14.9033 17.8389 15.1035 17.9414 15.2598C18.0928 15.4307 18.2832 15.5625 18.498 15.6406L19.04 15.8799C19.6016 16.1387 20.002 16.4512 20.251 16.8271C20.5 17.2031 20.6221 17.7061 20.6221 18.3408C20.6221 19.0977 20.4268 19.6787 20.0215 20.084C19.6211 20.4893 19.0693 20.6943 18.3564 20.6943C17.6436 20.6943 17.1064 20.4893 16.7256 20.0742L16.7305 20.0645ZM11.7988 20.0645C11.4229 19.6494 11.2275 19.0537 11.2129 18.2773H12.7412C12.751 18.9658 12.9902 19.3076 13.4639 19.3076C13.7031 19.3076 13.874 19.2295 13.9717 19.0781C14.0693 18.9268 14.1182 18.6875 14.1182 18.3555C14.1182 18.0918 14.0547 17.8721 13.9277 17.7012C13.7568 17.4961 13.5322 17.335 13.2832 17.2373L12.7168 16.9688C12.2139 16.7295 11.8477 16.4414 11.6182 16.1094C11.3984 15.7773 11.291 15.3135 11.291 14.7227C11.291 14.0586 11.4863 13.5215 11.8672 13.1064C12.2627 12.6914 12.7998 12.4863 13.4883 12.4863C14.1523 12.4863 14.665 12.6914 15.0215 13.0967C15.3926 13.5068 15.583 14.0879 15.6025 14.8496H14.1328C14.1426 14.6006 14.0889 14.3516 13.9863 14.127C13.9033 13.9609 13.7422 13.8779 13.498 13.8779C13.0684 13.8779 12.8535 14.1318 12.8535 14.6445C12.8535 14.9033 12.9072 15.1035 13.0098 15.2598C13.1611 15.4307 13.3516 15.5625 13.5664 15.6406L14.1084 15.8799C14.6699 16.1387 15.0703 16.4512 15.3193 16.8271C15.5684 17.2031 15.6904 17.7061 15.6904 18.3408C15.6904 19.0977 15.4902 19.6787 15.0898 20.084C14.4893 20.6919 14.1377 20.6943 13.4248 20.6943C12.7119 20.6943 12.1748 20.4893 11.7939 20.0742L11.7988 20.0645ZM6.64258 20.1182C6.23242 19.7422 6.03223 19.1807 6.03223 18.4336V14.752C6.03223 14.0098 6.24707 13.4482 6.67676 13.0625C7.11133 12.6816 7.6875 12.4863 8.39551 12.4863C9.08398 12.4863 9.62598 12.6816 10.0264 13.0723C10.4316 13.4629 10.6367 14.0488 10.6367 14.8252V15.1182H9.02051V14.835C9.02051 14.5371 8.95703 14.3125 8.8252 14.1709C8.77148 14.0977 8.69824 14.0391 8.61523 14C8.53223 13.9609 8.44434 13.9414 8.35156 13.9463C8.08789 13.9463 7.90234 14.0342 7.79492 14.2197C7.68262 14.4736 7.63379 14.7471 7.64844 15.0205V18.2188C7.64844 18.8877 7.88281 19.2246 8.35156 19.2344C8.57129 19.2344 8.7373 19.1562 8.84961 19C8.97168 18.7998 9.03027 18.5703 9.02051 18.3359V18.0967H10.6367V18.3457C10.6367 18.8633 10.5342 19.2979 10.334 19.6445C10.1387 19.9814 9.85059 20.2549 9.49902 20.4258C9.12305 20.6064 8.71289 20.6943 8.29785 20.6846C7.60449 20.6846 7.05273 20.4941 6.64746 20.1182H6.64258Z" fill="black"/>
</svg>
