<svg width="22" height="23" viewBox="0 0 22 23" fill="none" xmlns="http://www.w3.org/2000/svg">
<path d="M0.0625 0.5625V22.4375H21.9375V0.5625H0.0625ZM11.9672 17.6227C11.9672 19.7516 10.7172 20.7234 8.8961 20.7234C7.25078 20.7234 6.29844 19.8742 5.81016 18.8438L7.48516 17.8328C7.80781 18.4039 8.10078 18.8875 8.8086 18.8875C9.482 18.8875 9.9117 18.6234 9.9117 17.5938V10.6062H11.9672V17.6227ZM16.8297 20.7234C14.9203 20.7234 13.6852 19.8156 13.0844 18.6234L14.7594 17.657C15.1992 18.375 15.775 18.907 16.7859 18.907C17.6352 18.907 18.1828 18.482 18.1828 17.8914C18.1828 17.1883 17.6258 16.9391 16.6836 16.5242L16.1711 16.3047C14.6867 15.675 13.7055 14.8789 13.7055 13.2039C13.7055 11.6609 14.882 10.4891 16.7133 10.4891C18.0219 10.4891 18.9594 10.943 19.6336 12.1344L18.032 13.1602C17.6805 12.5305 17.2992 12.2812 16.7086 12.2812C16.1086 12.2812 15.7273 12.6625 15.7273 13.1602C15.7273 13.7758 16.1086 14.0242 16.9922 14.4102L17.5047 14.6297C19.2531 15.3766 20.2344 16.1438 20.2344 17.8617C20.2344 19.7078 18.7789 20.7227 16.8305 20.7227L16.8297 20.7234Z" fill="black"/>
</svg>
