<svg width="36" height="38" viewBox="0 0 36 38" fill="none" xmlns="http://www.w3.org/2000/svg">
<path d="M18 3.15002C16.0302 3.15002 14.0796 3.55741 12.2597 4.34892C10.4399 5.14043 8.78628 6.30057 7.3934 7.76309C4.58035 10.7168 3 14.7229 3 18.9C3 25.8615 7.305 31.7678 13.26 33.8625C14.01 33.9885 14.25 33.5003 14.25 33.075V30.4133C10.095 31.3583 9.21 28.3028 9.21 28.3028C8.52 26.4758 7.545 25.9875 7.545 25.9875C6.18 25.011 7.65 25.0425 7.65 25.0425C9.15 25.1528 9.945 26.6648 9.945 26.6648C11.25 29.0588 13.455 28.35 14.31 27.972C14.445 26.9483 14.835 26.2553 15.255 25.8615C11.925 25.4678 8.43 24.1133 8.43 18.1125C8.43 16.3643 9 14.9625 9.975 13.8443C9.825 13.4505 9.3 11.8125 10.125 9.68628C10.125 9.68628 11.385 9.26103 14.25 11.2928C15.435 10.9463 16.725 10.773 18 10.773C19.275 10.773 20.565 10.9463 21.75 11.2928C24.615 9.26103 25.875 9.68628 25.875 9.68628C26.7 11.8125 26.175 13.4505 26.025 13.8443C27 14.9625 27.57 16.3643 27.57 18.1125C27.57 24.129 24.06 25.452 20.715 25.8458C21.255 26.334 21.75 27.2948 21.75 28.7595V33.075C21.75 33.5003 21.99 34.0043 22.755 33.8625C28.71 31.752 33 25.8615 33 18.9C33 16.8317 32.612 14.7836 31.8582 12.8728C31.1044 10.9619 29.9995 9.22562 28.6066 7.76309C27.2137 6.30057 25.5601 5.14043 23.7402 4.34892C21.9204 3.55741 19.9698 3.15002 18 3.15002Z" fill="black"/>
</svg>
