<svg width="24" height="23" viewBox="0 0 24 23" fill="none" xmlns="http://www.w3.org/2000/svg">
<g clip-path="url(#clip0_50_2)">
<mask id="mask0_50_2" style="mask-type:luminance" maskUnits="userSpaceOnUse" x="0" y="0" width="24" height="23">
<path d="M0.5 0H23.5V23H0.5V0Z" fill="white"/>
</mask>
<g mask="url(#mask0_50_2)">
<path d="M5.36816 0H6.40508V1.02446H7.35383V0H8.39075V3.10117H7.35383V2.06329H6.40508V3.10117H5.36912L5.36816 0ZM9.7535 1.02829H8.84116V0H11.7037V1.02829H10.7904V3.10117H9.7535V1.02829ZM12.158 0H13.239L13.904 1.08963L14.5682 0H15.6492V3.10117H14.617V1.564L13.904 2.66704H13.8858L13.1719 1.56496V3.10117H12.158V0ZM16.1647 0H17.2026V2.07671H18.6593V3.10212H16.1647V0Z" fill="black"/>
<path fill-rule="evenodd" clip-rule="evenodd" d="M5.33575 21.1524L3.375 4.52051H20.625L18.6633 21.1505L11.9904 23.0001L5.33575 21.1524ZM9.30037 12.0482L9.11446 9.95905H16.9201L17.1022 7.91972H6.88633L7.43642 14.0885H14.506L14.2693 16.7335L11.9943 17.3488H11.9923L9.72108 16.7354L9.57542 15.1091H7.5265L7.81208 18.3119L11.9904 19.4715L16.1755 18.3119L16.6853 12.5964L16.7351 12.0492L9.30037 12.0482Z" fill="black"/>
</g>
</g>
<defs>
<clipPath id="clip0_50_2">
<rect width="23" height="23" fill="white" transform="translate(0.5)"/>
</clipPath>
</defs>
</svg>
