<svg width="38" height="40" viewBox="0 0 38 40" fill="none" xmlns="http://www.w3.org/2000/svg">
<path d="M30.0833 4.98749C30.9232 4.98749 31.7286 5.3378 32.3225 5.96136C32.9164 6.58492 33.25 7.43064 33.25 8.31249V31.5875C33.25 32.4693 32.9164 33.3151 32.3225 33.9386C31.7286 34.5622 30.9232 34.9125 30.0833 34.9125H7.91667C7.07681 34.9125 6.27136 34.5622 5.6775 33.9386C5.08363 33.3151 4.75 32.4693 4.75 31.5875V8.31249C4.75 7.43064 5.08363 6.58492 5.6775 5.96136C6.27136 5.3378 7.07681 4.98749 7.91667 4.98749H30.0833ZM29.2917 30.7562V21.945C29.2917 20.5076 28.7479 19.129 27.7798 18.1126C26.8118 17.0962 25.499 16.5252 24.13 16.5252C22.7842 16.5252 21.2167 17.3897 20.4567 18.6865V16.8411H16.0392V30.7562H20.4567V22.5601C20.4567 21.28 21.4383 20.2326 22.6575 20.2326C23.2454 20.2326 23.8092 20.4778 24.2249 20.9143C24.6406 21.3508 24.8742 21.9428 24.8742 22.5601V30.7562H29.2917ZM10.8933 14.231C11.5988 14.231 12.2754 13.9367 12.7742 13.4129C13.2731 12.8891 13.5533 12.1787 13.5533 11.438C13.5533 9.89186 12.3658 8.62836 10.8933 8.62836C10.1837 8.62836 9.50305 8.92438 9.00123 9.45128C8.49942 9.97819 8.2175 10.6928 8.2175 11.438C8.2175 12.9841 9.42083 14.231 10.8933 14.231ZM13.0942 30.7562V16.8411H8.70833V30.7562H13.0942Z" fill="black"/>
</svg>
